<svg width="359" height="259" viewBox="0 0 359 259" fill="none" xmlns="http://www.w3.org/2000/svg">
<g opacity="0.7">
<path d="M134.672 207.331C134.792 206.968 135.131 206.723 135.513 206.723H164.386C164.787 206.723 165.139 206.994 165.243 207.383L168.796 220.744C168.946 221.308 168.522 221.86 167.94 221.86H131.071C130.465 221.86 130.038 221.267 130.23 220.692L134.672 207.331Z" stroke="#3F64A0" stroke-width="3" stroke-linecap="round"/>
<path d="M150.766 202.458C150.954 201.934 151.056 201.372 151.056 200.788H148.397C148.397 201.06 148.349 201.318 148.264 201.556L150.766 202.458ZM152.649 199.507C151.1 199.507 149.704 200.169 148.731 201.223L150.683 203.032C151.174 202.5 151.872 202.171 152.649 202.171V199.507ZM155.187 200.149C154.431 199.739 153.565 199.507 152.649 199.507V202.171C153.112 202.171 153.544 202.287 153.921 202.491L155.187 200.149ZM159.345 198.413C157.748 198.413 156.302 199.079 155.276 200.145L157.189 201.994C157.736 201.427 158.499 201.077 159.345 201.077V198.413ZM165 204.078C165 200.95 162.468 198.413 159.345 198.413V201.077C161 201.077 162.341 202.421 162.341 204.078H165ZM164.148 207.068C164.688 206.2 165 205.173 165 204.078H162.341C162.341 204.661 162.177 205.202 161.891 205.661L164.148 207.068ZM137.435 208.054H162.336V205.391H137.435V208.054ZM134.976 204.589C134.976 205.437 135.185 206.24 135.554 206.944L137.908 205.707C137.734 205.374 137.634 204.996 137.634 204.589H134.976ZM140.041 199.515C137.244 199.515 134.976 201.787 134.976 204.589H137.634C137.634 203.258 138.712 202.179 140.041 202.179V199.515ZM142.375 200.084C141.675 199.72 140.88 199.515 140.041 199.515V202.179C140.443 202.179 140.819 202.276 141.148 202.448L142.375 200.084ZM146.134 195.859C143.417 195.859 141.214 198.065 141.214 200.788H143.873C143.873 199.536 144.885 198.523 146.134 198.523V195.859ZM151.056 200.788C151.056 198.065 148.853 195.859 146.134 195.859V198.523C147.384 198.523 148.397 199.536 148.397 200.788H151.056ZM137.435 205.391C137.542 205.391 137.772 205.447 137.908 205.707L135.554 206.944C135.96 207.72 136.747 208.054 137.435 208.054V205.391ZM153.921 202.491C154.96 203.055 156.345 202.87 157.189 201.994L155.276 200.145C155.288 200.132 155.294 200.13 155.286 200.135C155.278 200.138 155.263 200.144 155.242 200.147C155.22 200.15 155.202 200.15 155.188 200.147C155.176 200.146 155.176 200.144 155.187 200.149L153.921 202.491ZM161.891 205.661C162.027 205.442 162.228 205.391 162.336 205.391V208.054C162.994 208.054 163.723 207.753 164.148 207.068L161.891 205.661ZM149.623 203.497C150.034 203.497 150.416 203.321 150.683 203.032L148.731 201.223C148.954 200.981 149.275 200.834 149.623 200.834V203.497ZM141.148 202.448C141.577 202.671 141.997 202.641 142.246 202.593C142.512 202.54 142.749 202.434 142.939 202.318C143.13 202.201 143.331 202.038 143.499 201.825C143.655 201.628 143.873 201.27 143.873 200.788H141.214C141.214 200.447 141.365 200.236 141.412 200.175C141.474 200.098 141.526 200.062 141.552 200.045C141.579 200.029 141.636 199.998 141.732 199.979C141.81 199.964 142.071 199.926 142.375 200.084L141.148 202.448ZM148.264 201.556C147.942 202.454 148.574 203.497 149.623 203.497V200.834C150.511 200.834 151.034 201.712 150.766 202.458L148.264 201.556Z" fill="#3F64A0"/>
<path d="M128.221 221.847H170.739" stroke="#3F64A0" stroke-width="3" stroke-linecap="round"/>
<path d="M210.533 138.969L212.05 142.479C212.245 142.929 212.767 143.136 213.215 142.941L215.905 141.774C216.354 141.579 216.876 141.786 217.07 142.236L218.236 144.93C218.43 145.38 218.952 145.587 219.401 145.392L222.091 144.225C222.54 144.031 223.061 144.238 223.256 144.687L224.421 147.382C224.616 147.832 225.137 148.039 225.586 147.844L229.09 146.324" stroke="#3F64A0" stroke-width="3" stroke-linecap="round"/>
<path d="M189.853 193.651L189.111 189.9C189.016 189.419 188.55 189.106 188.069 189.201L185.194 189.772C184.714 189.868 184.248 189.556 184.152 189.075L183.582 186.194C183.487 185.713 183.021 185.401 182.541 185.496L179.666 186.067C179.186 186.162 178.719 185.849 178.624 185.369L178.054 182.488C177.959 182.007 177.493 181.695 177.012 181.79L173.268 182.533" stroke="#3F64A0" stroke-width="3" stroke-linecap="round"/>
<path d="M184.413 157.923L186.841 157.529" stroke="#3F64A0" stroke-width="3" stroke-linecap="round" stroke-linejoin="round"/>
<path d="M194.012 159.079L191.701 158.231" stroke="#3F64A0" stroke-width="3" stroke-linecap="round" stroke-linejoin="round"/>
<path d="M186.198 163.301C185.752 161.364 184.318 161.048 183.173 161.011" stroke="#3F64A0" stroke-width="3" stroke-linecap="round" stroke-linejoin="round"/>
<path d="M195.128 163.365C194.862 163.152 191.538 162.176 190.563 164.097" stroke="#3F64A0" stroke-width="3" stroke-linecap="round" stroke-linejoin="round"/>
<path d="M223.778 174.896C225.757 176.575 229.717 180.847 229.717 184.508C229.717 189.086 228.803 194.121 221.493 203.275C217.017 208.879 214.397 213.054 213.141 215.389C212.625 216.347 211.641 217.007 210.555 217.007H203.558C203.34 217.007 203.119 216.981 202.911 216.92C197.81 215.417 199.388 210.141 203.687 210.141C204.867 210.141 205.686 210.141 206.261 210.141C207.206 210.141 208.078 209.641 208.543 208.816C210.847 204.727 214.573 197.588 215.552 193.663" stroke="#3F64A0" stroke-width="3" stroke-linecap="round" stroke-linejoin="round"/>
<path d="M202.616 217.006H193.819C193.601 217.006 193.381 216.981 193.172 216.919C188.072 215.417 189.65 210.141 193.948 210.141C195.128 210.141 195.948 210.141 196.522 210.141C197.467 210.141 198.34 209.641 198.794 208.809C200.476 205.729 203.017 200.612 204.602 196.867" stroke="#3F64A0" stroke-width="3" stroke-linecap="round" stroke-linejoin="round"/>
<path d="M202.775 145.602C203.191 147.346 203.938 151.618 203.605 154.757" stroke="#3F64A0" stroke-width="3" stroke-linecap="round" stroke-linejoin="round"/>
<path d="M261.151 218.837H252.737C251.335 218.837 248.486 217.416 248.486 214.573" stroke="#3F64A0" stroke-width="3" stroke-linecap="round" stroke-linejoin="round"/>
<path d="M257.605 213.345C253.238 213.65 242.064 213.619 232.305 211.056C222.547 208.493 219.505 206.936 219.204 206.479" stroke="#3F64A0" stroke-width="3" stroke-linecap="round" stroke-linejoin="round"/>
<path d="M24.428 73.5614C22.22 71.6984 19.4334 70.438 17.6099 69.7802C16.5157 69.3855 15.4678 69.9976 15.3183 71.1529C14.7743 75.3573 16.5905 79.4571 18.3972 82.1763C18.9574 83.0195 20.0167 82.205 20.8119 81.5794C21.0442 81.3966 21.2219 81.5922 21.4529 81.7768C22.323 82.4721 23.8494 83.2946 24.7796 83.6871C25.1604 83.8477 25.4814 83.5659 25.4448 83.1537C25.2387 80.8387 24.7948 79.1795 24.2781 78.0164C24.139 77.7031 24.4924 74.1539 24.5193 73.812C24.5256 73.7308 24.4903 73.6139 24.428 73.5614Z" fill="#E5ECFF" stroke="#3F64A0" stroke-width="3" stroke-linecap="round" stroke-linejoin="round"/>
<path d="M99.9401 31.3511H4.65877C3.19037 31.3511 2 32.5435 2 34.0145V40.4286C2 41.8996 3.19037 43.0921 4.65877 43.0921H99.9401C101.409 43.0921 102.599 41.8996 102.599 40.4286V34.0145C102.599 32.5435 101.409 31.3511 99.9401 31.3511Z" fill="#E5ECFF" stroke="#3F64A0" stroke-width="3" stroke-linecap="round" stroke-linejoin="round"/>
<path d="M65.1863 207.521L65.1863 78.806C65.1863 77.3351 63.9959 76.1426 62.5275 76.1426H42.9626C41.4942 76.1426 40.3038 77.3351 40.3038 78.806L40.3038 207.521C40.3038 208.992 41.4942 210.185 42.9626 210.185H62.5275C63.9959 210.185 65.1863 208.992 65.1863 207.521Z" fill="#E5ECFF" stroke="#3F64A0" stroke-width="3" stroke-linecap="round" stroke-linejoin="round"/>
<path d="M65.1863 207.522L65.1863 45.7555C65.1863 44.2845 63.9959 43.092 62.5275 43.092H42.9626C41.4942 43.092 40.3038 44.2845 40.3038 45.7555L40.3038 207.522C40.3038 208.993 41.4942 210.185 42.9626 210.185H62.5275C63.9959 210.185 65.1863 208.993 65.1863 207.522Z" fill="#E5ECFF" stroke="#3F64A0" stroke-width="3" stroke-linecap="round" stroke-linejoin="round"/>
<path d="M83.3379 210.185H21.264C19.7956 210.185 18.6052 211.378 18.6052 212.849V219.263C18.6052 220.734 19.7956 221.926 21.264 221.926H83.3379C84.8063 221.926 85.9967 220.734 85.9967 219.263V212.849C85.9967 211.378 84.8063 210.185 83.3379 210.185Z" fill="#E5ECFF" stroke="#3F64A0" stroke-width="3" stroke-linecap="round" stroke-linejoin="round"/>
<path d="M40.9838 84.967L64.185 91.133" stroke="#3F64A0" stroke-width="3" stroke-linecap="round" stroke-linejoin="round"/>
<path d="M40.9838 43.8738L64.185 50.0397" stroke="#3F64A0" stroke-width="3" stroke-linecap="round" stroke-linejoin="round"/>
<path d="M40.9838 98.6646L64.185 104.83" stroke="#3F64A0" stroke-width="3" stroke-linecap="round" stroke-linejoin="round"/>
<path d="M40.9838 57.5718L64.185 63.7377" stroke="#3F64A0" stroke-width="3" stroke-linecap="round" stroke-linejoin="round"/>
<path d="M40.9838 112.363L64.185 118.529" stroke="#3F64A0" stroke-width="3" stroke-linecap="round" stroke-linejoin="round"/>
<path d="M40.9838 71.2695L64.185 77.4355" stroke="#3F64A0" stroke-width="3" stroke-linecap="round" stroke-linejoin="round"/>
<path d="M40.9838 139.758L64.185 145.924" stroke="#3F64A0" stroke-width="3" stroke-linecap="round" stroke-linejoin="round"/>
<path d="M40.9838 153.457L64.185 159.622" stroke="#3F64A0" stroke-width="3" stroke-linecap="round" stroke-linejoin="round"/>
<path d="M40.9838 180.852L64.185 187.018" stroke="#3F64A0" stroke-width="3" stroke-linecap="round" stroke-linejoin="round"/>
<path d="M40.9838 167.154L64.185 173.32" stroke="#3F64A0" stroke-width="3" stroke-linecap="round" stroke-linejoin="round"/>
<path d="M40.9838 194.549L64.185 200.715" stroke="#3F64A0" stroke-width="3" stroke-linecap="round" stroke-linejoin="round"/>
<path d="M40.9838 126.06L64.185 132.226" stroke="#3F64A0" stroke-width="3" stroke-linecap="round" stroke-linejoin="round"/>
<path d="M15.1112 43.6672V70.3562" stroke="#3F64A0" stroke-width="3" stroke-linecap="round" stroke-linejoin="round"/>
<path d="M6.23916 75.8322C8.09643 72.9434 11.2215 71.483 13.6256 70.8473C14.9221 70.5045 16.121 71.4377 16.3703 72.7576L17.5089 78.787C17.5352 78.9263 17.3958 79.0387 17.2655 78.9834L15.0124 78.0264C14.8469 77.956 14.6615 78.1699 14.7305 78.3363C15.3899 79.9274 15.1431 82.6978 14.7523 84.8478C14.7136 85.0607 14.0971 85.0388 14.0406 84.83C13.6076 83.228 12.8381 81.5213 12.7075 81.8296C10.1069 89.2268 12.2469 95.4493 11.7973 95.2584C7.12726 92.4946 7.05337 86.2565 7.70727 82.7792C7.74316 82.5884 7.48046 82.4679 7.36377 82.623L5.72499 84.8005C5.63889 84.9149 5.45916 84.8594 5.4547 84.7162C5.36478 81.8347 6.24074 79.5832 7.27299 78.0126C7.69916 77.3642 6.96297 76.1358 6.2284 75.8884C6.20003 75.8788 6.22296 75.8574 6.23916 75.8322Z" fill="#E5ECFF" stroke="#3F64A0" stroke-width="3" stroke-linecap="round" stroke-linejoin="round"/>
<path d="M181.711 117.453H285.612C287.081 117.453 288.271 116.26 288.271 114.789V81.9579C288.271 80.487 287.081 79.2944 285.612 79.2944H191.952" stroke="#3F64A0" stroke-width="3" stroke-linecap="round" stroke-linejoin="round"/>
<path d="M356.539 79.2944H290.93C289.461 79.2944 288.271 80.487 288.271 81.9579V114.789C288.271 116.26 289.461 117.453 290.93 117.453H356.539" stroke="#3F64A0" stroke-width="3" stroke-linecap="round" stroke-linejoin="round"/>
<path d="M210.034 62.6616L227.615 2" stroke="#3F64A0" stroke-width="3" stroke-linecap="round" stroke-linejoin="round"/>
<path d="M261.833 26.3337C264.248 26.5876 266.41 24.8331 266.663 22.4147C266.917 19.9964 265.165 17.8301 262.751 17.5761C260.337 17.3222 258.175 19.0768 257.921 21.4951C257.668 23.9134 259.419 26.0798 261.833 26.3337Z" fill="#E5ECFF" stroke="#3F64A0" stroke-width="3" stroke-linecap="round" stroke-linejoin="round"/>
<path d="M334.233 26.3337C336.648 26.5876 338.81 24.833 339.064 22.4147C339.317 19.9964 337.566 17.8301 335.151 17.5761C332.737 17.3222 330.575 19.0768 330.321 21.4951C330.068 23.9134 331.819 26.0798 334.233 26.3337Z" fill="#E5ECFF" stroke="#3F64A0" stroke-width="3" stroke-linecap="round" stroke-linejoin="round"/>
<path d="M253.195 9.68469L257.607 15.1417" stroke="#3F64A0" stroke-width="3" stroke-linecap="round" stroke-linejoin="round"/>
<path d="M325.594 9.68469L330.007 15.1417" stroke="#3F64A0" stroke-width="3" stroke-linecap="round" stroke-linejoin="round"/>
<path d="M250.848 32.0649L256.295 27.6451" stroke="#3F64A0" stroke-width="3" stroke-linecap="round" stroke-linejoin="round"/>
<path d="M323.247 32.0649L328.694 27.6451" stroke="#3F64A0" stroke-width="3" stroke-linecap="round" stroke-linejoin="round"/>
<path d="M275.885 10.1045L268.291 16.2661" stroke="#3F64A0" stroke-width="3" stroke-linecap="round" stroke-linejoin="round"/>
<path d="M348.283 10.1045L340.689 16.2661" stroke="#3F64A0" stroke-width="3" stroke-linecap="round" stroke-linejoin="round"/>
<path d="M273.13 36.3763L266.979 28.7688" stroke="#3F64A0" stroke-width="3" stroke-linecap="round" stroke-linejoin="round"/>
<path d="M345.53 36.3763L339.379 28.7688" stroke="#3F64A0" stroke-width="3" stroke-linecap="round" stroke-linejoin="round"/>
<path d="M262.777 79.3457C241.572 71.1586 192.114 55.9455 163.928 60.5898C128.694 66.3953 117.928 77.5596 119.396 93.6364C120.865 109.713 114.503 125.342 128.695 127.129C142.886 128.915 149.737 126.235 145.822 133.827C141.907 141.419 181.839 141.419 182.328 133.827C182.818 126.235 174.694 81.5784 191.332 79.3457" stroke="#3F64A0" stroke-width="3" stroke-linecap="round" stroke-linejoin="round"/>
<path d="M146.878 122.128C145.908 108.436 145.617 80.0715 152.216 76.1426" stroke="#3F64A0" stroke-width="3" stroke-linecap="round" stroke-linejoin="round"/>
<path d="M107.025 222.013H102.901C101.104 222.013 99.824 220.264 100.365 218.547L129.165 127.237M107.025 222.013H109.485C110.453 222.013 111.344 221.487 111.812 220.638L156.32 139.956M107.025 222.013L147.404 137.51" stroke="#3F64A0" stroke-width="3" stroke-linecap="round" stroke-linejoin="round"/>
<path d="M320.662 222.013H315.742C314.658 222.013 313.683 221.355 313.277 220.348L275.688 127.091C275.282 126.084 274.307 125.425 273.223 125.425H182.201M320.662 222.013L298.123 128.714C297.718 127.039 298.986 125.425 300.707 125.425H308.255M320.662 222.013H321.001C322.642 222.013 323.891 220.54 323.624 218.918L308.255 125.425M308.255 125.425H355.563" stroke="#3F64A0" stroke-width="3" stroke-linecap="round" stroke-linejoin="round"/>
<path d="M198.663 179.016C198.053 178.864 194.916 178.192 187.24 176.728C177.644 174.897 178.102 165.742 179.015 161.165C179.667 157.901 183.339 150.449 185.558 146.274C186.37 144.745 188.279 144.631 189.258 146.06C190.392 147.714 191.836 150.116 193.18 153.383" stroke="#3F64A0" stroke-width="3" stroke-linecap="round" stroke-linejoin="round"/>
<path d="M186.783 146.06C187.087 148.501 188.153 151.644 188.153 153.841C189.806 153.841 190.188 153.841 195.114 153.841C196.161 153.841 197.107 153.225 197.562 152.282C199.106 149.086 201.533 144.687 202.774 144.687C204.602 144.687 207.8 152.01 208.714 155.672C209.628 159.333 212.826 163.453 216.482 161.622C220.137 159.792 224.706 154.299 224.706 156.129C224.706 157.961 226.991 157.045 230.646 154.757C234.302 152.468 236.586 149.722 237.043 151.094C237.499 152.468 234.758 155.672 237.957 154.757C241.123 153.85 247.424 149.804 253.755 151.054C253.884 151.08 254.017 151.119 254.139 151.169C257.339 152.485 250.318 152.942 251.664 153.841C252.916 154.677 263.694 155.131 268.688 157.296C269.503 157.649 269.897 158.61 269.115 159.032C267.089 160.122 262.17 159.973 264.001 160.707C266.285 161.622 274.967 164.368 281.364 174.896C287.761 185.424 292.787 201.444 292.329 209.683C291.873 217.922 287.761 218.838 282.734 218.838C278.714 218.838 266.742 218.838 261.259 218.838C259.889 218.685 257.147 217.83 257.147 215.634C257.147 212.887 258.975 211.514 264.915 211.514C269.667 211.514 272.987 211.514 274.053 211.514C275.576 211.361 278.896 210.873 279.993 210.141" stroke="#3F64A0" stroke-width="3" stroke-linecap="round" stroke-linejoin="round"/>
<path d="M251.663 186.691C248.617 193.405 246.728 207.747 263.542 211.408" stroke="#3F64A0" stroke-width="3" stroke-linecap="round" stroke-linejoin="round"/>
<path d="M189.066 177.185C189.979 178.1 194.092 180.847 198.661 187.254C203.23 193.663 207.342 200.986 211.454 202.36" stroke="#3F64A0" stroke-width="3" stroke-linecap="round" stroke-linejoin="round"/>
<path d="M185.686 165.17C186.667 165.17 187.462 164.374 187.462 163.391C187.462 162.409 186.667 161.613 185.686 161.613C184.706 161.613 183.911 162.409 183.911 163.391C183.911 164.374 184.706 165.17 185.686 165.17Z" fill="#3F64A0"/>
<path d="M194.707 165.878C195.782 165.878 196.653 165.005 196.653 163.928C196.653 162.851 195.782 161.978 194.707 161.978C193.631 161.978 192.76 162.851 192.76 163.928C192.76 165.005 193.631 165.878 194.707 165.878Z" fill="#3F64A0"/>
<path d="M186.414 168.741C185.406 168.638 184.188 167.694 184.406 166.899C184.786 165.068 189.659 165.585 189.37 167.603C189.244 168.488 187.216 168.821 186.414 168.741Z" fill="#3F64A0"/>
<path d="M186.805 167.55L186.398 169.403" stroke="#3F64A0" stroke-width="3" stroke-linecap="round" stroke-linejoin="round"/>
<path d="M183.623 171.199L184.804 170.575C185.612 170.148 186.612 170.406 187.113 171.172L188.03 172.573" stroke="#3F64A0" stroke-width="3" stroke-linecap="round" stroke-linejoin="round"/>
<path d="M292.63 209.423L306.03 207.143" stroke="#3F64A0" stroke-width="3" stroke-linecap="round" stroke-linejoin="round"/>
<path d="M292.358 214.02L308.769 212.559" stroke="#3F64A0" stroke-width="3" stroke-linecap="round" stroke-linejoin="round"/>
<path d="M321.788 204.206C328.264 202.86 342.802 202.995 349.135 214.299C357.05 228.429 354.171 255.68 321.788 256.689C289.405 257.698 284.799 248.038 293.147 245.01C301.494 241.982 341.362 249.191 343.952 226.122C344.759 215.856 330.375 211.463 323.083 210.551" stroke="#3F64A0" stroke-width="3" stroke-linecap="round" stroke-linejoin="round"/>
</g>
</svg>
