<svg width="66" height="37" viewBox="0 0 66 37" fill="none" xmlns="http://www.w3.org/2000/svg">
<path d="M0.368984 2.18V-9.53674e-07H10.129V2.18H6.42898V14H4.04898V2.18H0.368984ZM10.2549 9.9V8.42H16.0349C15.9816 7.98 15.8616 7.6 15.6749 7.28C15.5016 6.94667 15.2549 6.69333 14.9349 6.52C14.6149 6.33333 14.2216 6.24 13.7549 6.24C13.2749 6.24 12.8416 6.34667 12.4549 6.56C12.0683 6.76 11.7616 7.06 11.5349 7.46C11.3083 7.84667 11.1949 8.30667 11.1949 8.84L11.1549 9.4C11.1549 10.08 11.2616 10.6467 11.4749 11.1C11.7016 11.54 12.0083 11.8733 12.3949 12.1C12.7949 12.3133 13.2549 12.42 13.7749 12.42C14.2016 12.42 14.5749 12.36 14.8949 12.24C15.2283 12.12 15.5216 11.9533 15.7749 11.74C16.0283 11.5133 16.2416 11.2533 16.4149 10.96L18.2749 11.72C17.9683 12.2133 17.6149 12.6467 17.2149 13.02C16.8283 13.3933 16.3483 13.6867 15.7749 13.9C15.2149 14.1 14.5149 14.2 13.6749 14.2C12.7283 14.2 11.9016 13.9933 11.1949 13.58C10.4883 13.1667 9.94159 12.6 9.55492 11.88C9.16826 11.1467 8.97492 10.32 8.97492 9.4C8.97492 9.22667 8.98159 9.06 8.99492 8.9C9.00826 8.74 9.02826 8.58 9.05492 8.42C9.18826 7.66 9.45492 6.99333 9.85492 6.42C10.2683 5.84667 10.8083 5.4 11.4749 5.08C12.1416 4.76 12.9083 4.6 13.7749 4.6C14.7216 4.6 15.5349 4.79333 16.2149 5.18C16.9083 5.55333 17.4416 6.09333 17.8149 6.8C18.1883 7.49333 18.3749 8.32667 18.3749 9.3C18.3749 9.38 18.3749 9.47333 18.3749 9.58C18.3749 9.67333 18.3616 9.78 18.3349 9.9H10.2549ZM14.5949 2.08C14.5949 1.70667 14.7283 1.39333 14.9949 1.14C15.2616 0.886666 15.5816 0.759999 15.9549 0.759999C16.3283 0.759999 16.6483 0.886666 16.9149 1.14C17.1816 1.39333 17.3149 1.70667 17.3149 2.08C17.3149 2.45333 17.1816 2.76667 16.9149 3.02C16.6483 3.27333 16.3283 3.4 15.9549 3.4C15.5816 3.4 15.2616 3.27333 14.9949 3.02C14.7283 2.76667 14.5949 2.45333 14.5949 2.08ZM10.2349 2.08C10.2349 1.70667 10.3683 1.39333 10.6349 1.14C10.9149 0.886666 11.2349 0.759999 11.5949 0.759999C11.9816 0.759999 12.3083 0.886666 12.5749 1.14C12.8416 1.39333 12.9749 1.70667 12.9749 2.08C12.9749 2.45333 12.8416 2.76667 12.5749 3.02C12.3083 3.27333 11.9816 3.4 11.5949 3.4C11.2349 3.4 10.9149 3.27333 10.6349 3.02C10.3683 2.76667 10.2349 2.45333 10.2349 2.08ZM28.5962 4.8V14H26.4762V6.74H22.5762V14H20.4562V4.8H28.5962ZM40.0546 4.8V14H37.9346V6.8H33.7546V10.8C33.7546 11.52 33.6346 12.12 33.3946 12.6C33.1546 13.0667 32.7679 13.42 32.2346 13.66C31.7146 13.8867 31.0279 14 30.1746 14V12.04C30.5746 12.04 30.9146 11.9333 31.1946 11.72C31.4879 11.5067 31.6346 11.1 31.6346 10.5V4.8H40.0546ZM51.9543 4.8H54.1343V14H51.9543V4.8ZM43.0343 4.8H45.1943V14H43.0343V4.8ZM44.5343 9.76V8.14H47.3943C48.341 8.14 49.1343 8.37333 49.7743 8.84C50.4276 9.29333 50.7543 10.0133 50.7543 11C50.7543 11.6533 50.6076 12.2067 50.3143 12.66C50.021 13.1 49.621 13.4333 49.1143 13.66C48.6076 13.8867 48.0343 14 47.3943 14H44.5343V12.22H47.1943C47.5143 12.22 47.781 12.1733 47.9943 12.08C48.2076 11.9867 48.3743 11.8467 48.4943 11.66C48.6143 11.4733 48.6743 11.2533 48.6743 11C48.6743 10.6 48.5476 10.2933 48.2943 10.08C48.041 9.86667 47.6743 9.76 47.1943 9.76H44.5343ZM65.222 6.8L56.962 14.7L57.062 12L65.322 4.1L65.222 6.8ZM59.082 4.8V12.26L56.962 14.7V4.8H59.082ZM65.322 4.1V14H63.202V6.54L65.322 4.1ZM58.022 0.099999H59.662C59.662 0.3 59.7086 0.506666 59.802 0.719999C59.9086 0.933333 60.0753 1.11333 60.302 1.26C60.5286 1.40667 60.8353 1.48 61.222 1.48C61.6086 1.48 61.9153 1.40667 62.142 1.26C62.3686 1.11333 62.5286 0.933333 62.622 0.719999C62.7286 0.506666 62.782 0.3 62.782 0.099999H64.442C64.442 0.579999 64.3153 1.04 64.062 1.48C63.822 1.92 63.462 2.27333 62.982 2.54C62.5153 2.80667 61.9286 2.94 61.222 2.94C60.5286 2.94 59.942 2.80667 59.462 2.54C58.982 2.27333 58.622 1.92 58.382 1.48C58.142 1.04 58.022 0.579999 58.022 0.099999ZM21.5349 24.06L18.0349 33.4H15.3949L21.5549 19.3L27.6949 33.4H25.0549L21.5349 24.06ZM26.7549 34H16.3349V36.2H14.0949V31.88H28.9949V36.2H26.7549V34ZM30.5765 29.4C30.5765 28.4533 30.7898 27.62 31.2165 26.9C31.6565 26.18 32.2498 25.62 32.9965 25.22C33.7432 24.8067 34.5898 24.6 35.5365 24.6C36.4832 24.6 37.3232 24.8067 38.0565 25.22C38.8032 25.62 39.3965 26.18 39.8365 26.9C40.2765 27.62 40.4965 28.4533 40.4965 29.4C40.4965 30.3333 40.2765 31.1667 39.8365 31.9C39.3965 32.62 38.8032 33.1867 38.0565 33.6C37.3232 34 36.4832 34.2 35.5365 34.2C34.5898 34.2 33.7432 34 32.9965 33.6C32.2498 33.1867 31.6565 32.62 31.2165 31.9C30.7898 31.1667 30.5765 30.3333 30.5765 29.4ZM32.7965 29.4C32.7965 29.9733 32.9165 30.48 33.1565 30.92C33.3965 31.3467 33.7232 31.6867 34.1365 31.94C34.5498 32.18 35.0165 32.3 35.5365 32.3C36.0432 32.3 36.5032 32.18 36.9165 31.94C37.3432 31.6867 37.6765 31.3467 37.9165 30.92C38.1565 30.48 38.2765 29.9733 38.2765 29.4C38.2765 28.8267 38.1565 28.32 37.9165 27.88C37.6765 27.44 37.3432 27.1 36.9165 26.86C36.5032 26.62 36.0432 26.5 35.5365 26.5C35.0165 26.5 34.5498 26.62 34.1365 26.86C33.7232 27.1 33.3965 27.44 33.1565 27.88C32.9165 28.32 32.7965 28.8267 32.7965 29.4ZM51.306 34L49.906 27.1L51.046 24.1L53.606 34H51.306ZM46.806 32.12L51.046 24.1L51.246 27.64L47.406 34.62L46.806 32.12ZM47.406 34.62L43.606 27.64L43.806 24.1L48.006 32.12L47.406 34.62ZM41.266 34L43.806 24.1L44.966 27.1L43.566 34H41.266Z" fill="#FDCC1B"/>
</svg>
